<?xml version="1.0" 
?><!DOCTYPE svg  PUBLIC '-//W3C//DTD SVG 1.1//EN'  
'http://www.w3.org/Graphics/SVG/1.1/DTD/svg11.dtd'>
<svg enable-background="new 0 0 512 512" height="512px" 
id="Layer_1" version="1.1" viewBox="0 0 512 512" width="512px" 
xml:space="preserve" xmlns="http://www.w3.org/2000/svg" 
xmlns:xlink="http://www.w3.org/1999/xlink"><g>
<path d="M301.757,425.322c0,0-59.858-33.54-107.289-93.922c-16.309-20.76-24.618-44.099-29.22-65.289   
L44.694,408.356C27.98,428.087,35.456,444,61.305,444H235v20.564c0,13.32,11.263,23.436,24.575,23.436h18.077   
C290.965,488,302,477.885,302,464.564V444h44.361C331.489,439,316.515,433.049,301.757,425.322z" fill="#ff0080"/>
<path d="M345.157,264h17.005c25.85,0,33.87-16.279,17.824-36.56L318.476,150h13.461   
c-6.185-2-12.359-4.199-18.485-6.456c0,0-11.303-4.585-13.468-5.596c-7.005-3.274-40-25.276-57.916-42.468   
c-5.395-6.074-10.185-12.442-14.25-19.01c-4.121-6.659-7.403-13.296-9.837-19.944l-52.402,66.307   
C153.884,137.58,159.73,150,178.569,150h14.872l-61.508,77.621c-3.385,4.279-5.687,8.155-6.988,11.981   
C117.362,271.869,165.249,266,151.726,264h44.079c3.869,16.002,11.708,33.363,23.322,50.503   
c17.923,26.45,43.107,50.673,72.83,69.882c37.724,24.381,78.082,37.896,113.638,37.97c24.619,0.053,44.54-6.544,57.914-18.576   
L345.157,264z" fill="#ff0080"/>
<path d="M309.189,117.953c13.886,6.491,28.189,10.993,42.263,13.382c-0.947-2.783-2.625-5.771-5.092-8.882   
l-69.128-87.161c-11.619-14.65-30.58-14.733-42.294-0.272c1.21,9.578,5.013,19.734,11.351,29.975   
C259.523,86.377,281.862,105.185,309.189,117.953z" fill="#ff0080"/>
<path d="M467.225,408.336l-3.717-4.37c-13.374,12.031-33.295,18.478-57.914,18.425   
c-35.556-0.074-75.914-13.538-113.638-37.919c-29.723-19.208-54.906-43.343-72.83-69.791   
c-15.326-22.618-24.081-45.239-25.809-65.326c0.749-0.342,1.501-0.673,2.248-1.022c42.685-19.992,77.851-49.883,99.021-84.165   
c4.819-7.807,8.793-15.54,11.933-23.349c8.383,3.454,16.891,6.182,25.417,9.182h1.435c14.863,0,21.632-7.879,18.081-18.288   
c-14.073-2.389-28.377-7.214-42.263-13.705c-27.327-12.768-49.666-31.604-62.901-52.986c-6.338-10.24-10.14-20.409-11.351-29.987   
c-0.076,0.094-0.156,0.175-0.231,0.27L217.98,56.389c2.435,6.649,5.716,13.344,9.837,20.004   
c11.957,19.318,30.056,36.859,52.067,50.551c-2.622,7.092-6.168,14.304-10.642,21.551c-18.159,29.406-48.81,55.272-86.306,72.833   
c-19.055,8.926-38.683,14.938-57.993,18.225C120.077,253.865,129.361,264,149.756,264h1.97c6.827-1,13.523,1.939,13.523,1.939   
c4.602,21.19,14.409,43.531,29.22,65.386c20.606,30.408,49.297,58.001,82.967,79.763C299.854,425.574,323.234,436,346.361,444   
h104.253C476.463,444,483.938,428.066,467.225,408.336z" fill="#FFFFFF"/>
<path d="M256.302,24.121c6.936,0,13.783,3.338,20.178,9.965l68.917,87.154c2.467,3.111,4.763,6.168,6.355,10.666   
c3.551,10.408-3.195,17.076-18.059,17.076l-14.865,0.803l61.157,77.727c16.046,20.28,8.025,35.642-17.824,35.642l-17.005,1.206   
l118.351,139.017l3.717,4.657c16.713,19.732,9.238,35.967-16.61,35.967H346.361H301v19.359C301,476.679,290.965,488,277.652,488   
h-18.077c-13.313,0-24.104-11.693-24.104-25.016L235.873,444H61.305c-25.849,0-32.564-16.016-15.851-35.748l119.794-142.525   
l1.729-2.727h-17.221c-20.395,0-29.679-9.635-24.811-23.95c1.301-3.825,3.603-7.596,6.988-11.874l61.96-77.409l-15.324-1.197   
c-18.838,0-24.685-11.708-12.99-26.456l53.164-65.739c5.381-5.385,17.099-22.438,17.185-22.522   
C242.574,27.349,249.481,24.121,256.302,24.121 M256.302,0c-9.239,0-23.198,2.882-37.225,16.604   
c-1.623,1.591-72.236,90.34-72.236,90.34l-0.072,0.09l-0.072,0.09c-16.347,20.614-10.911,37.755-7.815,44.168   
c1.624,3.364,5.154,9.061,11.937,13.73l-37.701,47.112l-0.042,0.053l-0.042,0.053c-5.276,6.671-8.742,12.744-10.909,19.116   
c-4.603,13.531-2.988,26.783,4.545,37.313c2.995,4.185,7.528,8.766,14.305,12.336L27.021,392.739   
c-6.284,7.433-10.631,15.073-12.918,22.708c-2.992,9.988-2.451,19.855,1.565,28.531c3.96,8.555,10.983,15.17,20.308,19.305   
C43.173,466.471,51.695,468,61.305,468h150.296c1.062,11,5.7,20.844,13.327,29c9.094,9.732,21.723,15,34.646,15h18.077   
c13.376,0,25.67-5.35,34.62-15.637c6.945-7.98,11.176-18.363,12.16-28.363h21.929h104.253c31.37,0,42.708-17.084,46.128-24.469   
c3.405-7.357,9.135-26.945-10.857-50.785l-94.86-111.727c9.907-5.188,15.021-12.54,17.568-17.811   
c4.304-8.904,8.765-27.32-9.703-50.67l-37.065-47.104c3.85-2.659,6.646-5.678,8.658-8.492c6.67-9.331,8.121-20.988,4.082-32.828   
l-0.046-0.135l-0.047-0.135c-2.803-7.913-6.731-13.232-10.193-17.599l-70.459-88.918C279.996,3.007,265.788,0,256.302,0L256.302,0z   
" fill="#00ff40"/></g></svg>